<svg width="1280" height="510" viewBox="0 0 1280 510" xmlns="http://www.w3.org/2000/svg">
<defs>
 <linearGradient id="pbg" x2="1" y2="1"><stop stop-color="#020617"/><stop offset="1" stop-color="#0b1022"/></linearGradient>
 <linearGradient id="c1"><stop stop-color="#164e63"/><stop offset="1" stop-color="#083344"/></linearGradient>
 <linearGradient id="c2"><stop stop-color="#312e81"/><stop offset="1" stop-color="#17133b"/></linearGradient>
 <linearGradient id="c3"><stop stop-color="#7c2d12"/><stop offset="1" stop-color="#291308"/></linearGradient>
 <filter id="ps"><feDropShadow dx="0" dy="18" stdDeviation="12" flood-color="#000" flood-opacity=".8"/></filter>
</defs>
<rect width="1280" height="510" rx="28" fill="url(#pbg)" stroke="#1e293b"/>
<text x="54" y="58" fill="#94a3b8" font-family="monospace" font-size="14" letter-spacing="4">THREE WORLDS / THREE DIFFERENT ENGINEERING PROBLEMS</text>

<g transform="translate(75 125)" filter="url(#ps)">
 <polygon points="0,72 165,0 330,72 165,144" fill="url(#c1)" stroke="#22d3ee" stroke-width="2"/>
 <polygon points="0,72 165,144 165,285 0,213" fill="#061827" stroke="#0e7490"/>
 <polygon points="165,144 330,72 330,213 165,285" fill="#082f49" stroke="#22d3ee"/>
 <rect x="88" y="49" width="154" height="56" rx="8" fill="#020617" stroke="#67e8f9"/>
 <path d="M110 70H150M110 82H185M110 94H165" stroke="#22d3ee" stroke-width="3"/>
 <text x="165" y="190" text-anchor="middle" fill="#e0f2fe" font-family="Arial" font-size="22" font-weight="800">SCHEMACRAFT</text>
 <text x="165" y="218" text-anchor="middle" fill="#67e8f9" font-family="monospace" font-size="11">DATABASE DESIGN WORLD</text>
</g>

<g transform="translate(475 125)" filter="url(#ps)">
 <polygon points="0,72 165,0 330,72 165,144" fill="url(#c2)" stroke="#a78bfa" stroke-width="2"/>
 <polygon points="0,72 165,144 165,285 0,213" fill="#100d2b" stroke="#6d28d9"/>
 <polygon points="165,144 330,72 330,213 165,285" fill="#18133c" stroke="#8b5cf6"/>
 <circle cx="165" cy="70" r="34" fill="#080516" stroke="#c4b5fd"/>
 <text x="165" y="78" text-anchor="middle" fill="#ddd6fe" font-family="Arial" font-size="22" font-weight="900">RD</text>
 <text x="165" y="190" text-anchor="middle" fill="#ede9fe" font-family="Arial" font-size="22" font-weight="800">PORTFOLIO</text>
 <text x="165" y="218" text-anchor="middle" fill="#c4b5fd" font-family="monospace" font-size="11">PRODUCT STORY WORLD</text>
</g>

<g transform="translate(875 125)" filter="url(#ps)">
 <polygon points="0,72 165,0 330,72 165,144" fill="url(#c3)" stroke="#fb923c" stroke-width="2"/>
 <polygon points="0,72 165,144 165,285 0,213" fill="#241006" stroke="#c2410c"/>
 <polygon points="165,144 330,72 330,213 165,285" fill="#301407" stroke="#f97316"/>
 <path d="M115 88C135 46 195 46 215 88M130 88V108M200 88V108" fill="none" stroke="#fdba74" stroke-width="5"/>
 <text x="165" y="190" text-anchor="middle" fill="#fff7ed" font-family="Arial" font-size="22" font-weight="800">URAAN</text>
 <text x="165" y="218" text-anchor="middle" fill="#fdba74" font-family="monospace" font-size="11">BOOKING SYSTEM WORLD</text>
</g>

<path d="M405 267H455M805 267H855" stroke="#64748b" stroke-dasharray="5 7"/>
<circle cx="430" cy="267" r="5" fill="#22d3ee"><animate attributeName="opacity" values="1;.2;1" dur="1.5s" repeatCount="indefinite"/></circle>
<circle cx="830" cy="267" r="5" fill="#a78bfa"><animate attributeName="opacity" values=".2;1;.2" dur="1.5s" repeatCount="indefinite"/></circle>
</svg>
